<?xml version="1.0" standalone="no"?>
<!DOCTYPE svg PUBLIC "-//W3C//DTD SVG 20010904//EN"
 "http://www.w3.org/TR/2001/REC-SVG-20010904/DTD/svg10.dtd">
<svg version="1.0" xmlns="http://www.w3.org/2000/svg"
 width="512.000000pt" height="512.000000pt" viewBox="0 0 512.000000 512.000000"
 preserveAspectRatio="xMidYMid meet">
<metadata>
Created by potrace 1.14, written by Peter Selinger 2001-2017
</metadata>
<g transform="translate(0.000000,512.000000) scale(0.100000,-0.100000)"
fill="#000000" stroke="none">
<path d="M2495 5102 c-33 -17 -95 -77 -95 -92 0 -5 -5 -10 -12 -10 -6 0 -8 -3
-5 -6 6 -7 -40 -94 -56 -105 -5 -3 -8 -9 -7 -13 1 -7 -51 -118 -60 -126 -3 -3
-22 -36 -42 -75 -38 -74 -84 -162 -163 -310 -26 -49 -62 -117 -79 -150 -17
-33 -39 -69 -48 -79 -10 -11 -18 -23 -18 -28 0 -4 -8 -16 -17 -26 -10 -10 -27
-29 -39 -43 -33 -38 -124 -119 -134 -119 -6 0 -10 -4 -10 -10 0 -5 -4 -10 -10
-10 -5 0 -26 -12 -47 -26 -62 -42 -166 -87 -230 -100 -13 -2 -33 -6 -45 -8
-13 -3 -44 -9 -70 -14 -27 -5 -48 -7 -48 -4 0 2 -6 -1 -13 -7 -8 -6 -16 -9
-18 -6 -3 2 -22 0 -44 -5 -22 -5 -56 -12 -75 -15 -19 -3 -42 -8 -50 -10 -8 -2
-35 -7 -60 -11 -51 -7 -75 -12 -75 -14 0 -1 -11 -3 -25 -5 -14 -1 -51 -8 -82
-14 -32 -7 -70 -14 -85 -16 -16 -2 -29 -4 -30 -6 -2 -1 -12 -3 -23 -4 -11 -1
-21 -4 -22 -5 -2 -1 -14 -4 -28 -6 -14 -2 -38 -6 -55 -9 -16 -3 -39 -7 -50 -9
-11 -2 -27 -6 -35 -9 -8 -4 -25 -8 -38 -10 -12 -2 -28 -9 -34 -15 -7 -7 -17
-12 -24 -12 -6 0 -20 -12 -30 -26 -10 -14 -25 -32 -32 -40 -14 -14 -23 -70
-13 -80 3 -3 6 -13 7 -22 2 -43 34 -88 154 -212 30 -32 100 -105 155 -162 494
-518 449 -467 505 -571 22 -41 43 -84 45 -94 2 -10 11 -37 19 -59 40 -111 53
-282 32 -419 -3 -22 -8 -56 -10 -75 -3 -19 -5 -35 -6 -35 -1 0 -3 -18 -5 -40
-3 -22 -7 -53 -9 -70 -2 -16 -7 -51 -10 -76 -3 -26 -8 -66 -11 -90 -3 -24 -8
-57 -10 -74 -2 -16 -4 -30 -5 -30 -1 0 -3 -18 -5 -40 -1 -22 -6 -58 -9 -80 -4
-22 -9 -60 -12 -85 -2 -25 -7 -61 -10 -80 -7 -36 -7 -152 -1 -181 1 -9 14 -33
27 -52 42 -62 133 -77 224 -37 26 11 48 20 51 20 3 0 97 46 209 100 112 55
209 100 215 100 6 0 11 3 11 8 0 6 53 34 70 37 3 1 79 37 170 81 241 118 269
126 448 129 149 3 259 -18 371 -71 42 -20 105 -50 141 -67 36 -17 68 -30 73
-29 4 1 7 -3 7 -9 0 -5 4 -7 10 -4 5 3 10 1 10 -5 0 -6 4 -9 9 -6 5 4 11 1 13
-4 2 -6 10 -12 18 -14 32 -5 60 -18 60 -27 0 -5 3 -8 8 -7 7 2 89 -35 214 -97
36 -19 69 -31 72 -28 3 4 6 1 6 -5 0 -7 8 -12 19 -12 10 0 24 -7 31 -15 6 -8
15 -14 18 -13 4 1 36 -12 73 -29 75 -36 124 -50 159 -48 103 7 150 65 155 195
1 44 0 80 -4 80 -4 0 -7 10 -8 23 -4 83 -9 127 -13 127 -3 0 -7 12 -8 28 -1
15 -4 47 -8 72 -3 25 -7 56 -9 70 -8 63 -15 117 -20 140 -3 14 -7 45 -10 70
-3 25 -7 59 -10 75 -4 29 -6 42 -21 150 -3 28 -10 73 -14 100 -10 58 -5 188 9
260 14 71 61 209 75 217 6 4 8 8 3 8 -4 0 -1 10 8 23 8 13 12 27 8 30 -3 4 -2
7 4 7 6 0 20 16 32 35 25 43 33 53 94 117 26 27 47 51 47 52 0 1 28 31 63 67
34 36 130 137 212 224 83 87 169 179 193 204 84 87 132 145 132 157 0 7 5 14
10 16 12 4 21 41 21 90 0 46 -43 118 -70 118 -6 0 -11 5 -11 10 0 6 -3 9 -7 8
-5 -1 -18 3 -29 10 -12 6 -36 13 -53 14 -17 1 -31 5 -31 9 0 3 -10 6 -22 5
-13 -1 -40 4 -61 11 -24 8 -35 9 -31 2 4 -8 0 -8 -14 0 -11 6 -37 12 -56 13
-20 2 -36 5 -36 9 0 3 -10 5 -22 5 -13 1 -39 4 -58 8 -19 4 -48 9 -65 11 -16
2 -30 4 -30 5 0 2 -33 9 -80 16 -22 3 -49 8 -60 10 -56 11 -124 23 -160 29
-22 3 -47 8 -55 10 -8 3 -33 7 -55 10 -22 4 -56 10 -75 15 -19 5 -48 11 -64
14 -42 7 -180 76 -247 122 -56 39 -129 100 -129 107 0 3 -18 24 -40 47 -22 23
-40 46 -40 51 0 4 -6 14 -13 21 -12 12 -23 32 -93 168 -16 30 -33 58 -39 62
-7 5 -7 8 0 8 6 0 6 3 -1 8 -5 4 -18 23 -27 42 -29 60 -73 139 -87 155 -7 8
-9 15 -6 15 4 0 -1 12 -12 28 -18 25 -25 39 -68 125 -10 17 -23 39 -30 47 -7
8 -13 18 -14 22 -2 19 -15 45 -32 62 -10 11 -18 26 -18 33 0 17 -67 118 -100
153 -24 25 -95 50 -131 48 -9 -1 -29 -8 -44 -16z"/>
<path d="M1030 4999 c0 -5 -4 -8 -10 -4 -24 15 -109 -61 -132 -120 -20 -51
-13 -207 10 -225 4 -3 8 -12 10 -20 5 -21 49 -95 68 -114 8 -9 12 -16 8 -16
-4 0 5 -11 20 -25 14 -13 26 -28 26 -32 0 -8 164 -170 226 -223 16 -14 51 -41
79 -60 55 -39 70 -50 88 -66 7 -6 14 -11 17 -11 3 0 33 -14 68 -31 34 -17 60
-26 56 -20 -5 7 -2 8 11 1 42 -24 85 11 87 72 2 42 -12 133 -28 177 -7 21 -11
38 -8 38 2 0 -2 13 -11 30 -8 16 -16 33 -16 37 -3 17 -11 39 -25 64 -7 14 -11
29 -7 33 3 3 1 6 -5 6 -7 0 -12 11 -12 25 0 14 -4 25 -10 25 -5 0 -10 9 -10
20 0 11 -4 20 -10 20 -5 0 -10 7 -10 16 0 18 -41 96 -93 176 -59 92 -184 207
-227 211 -11 1 -20 5 -20 10 0 4 -4 6 -9 2 -5 -3 -12 -1 -16 5 -8 13 -115 13
-115 -1z"/>
<path d="M3938 4990 c-18 -8 -49 -26 -68 -40 -51 -35 -150 -140 -150 -158 0
-5 -8 -17 -18 -28 -10 -11 -33 -50 -52 -87 -18 -37 -36 -67 -40 -67 -4 0 -7
-6 -7 -12 0 -7 -12 -38 -26 -68 -32 -70 -41 -93 -39 -102 1 -5 -2 -8 -8 -8 -6
0 -9 -3 -8 -7 0 -5 -2 -15 -5 -23 -12 -30 -50 -176 -53 -205 -2 -16 -5 -43 -7
-60 -2 -16 3 -45 11 -62 14 -30 20 -33 61 -33 31 0 60 9 98 30 29 17 53 27 53
23 0 -5 4 -3 8 3 4 7 30 27 58 45 69 46 134 100 222 184 78 76 192 207 192
223 0 5 6 15 14 21 23 19 67 140 73 198 14 145 -87 259 -223 251 -29 -1 -67
-10 -86 -18z"/>
<path d="M787 2263 c-1 0 -45 -4 -97 -7 -101 -6 -146 -11 -195 -20 -16 -4 -45
-9 -64 -12 -19 -3 -45 -10 -58 -15 -13 -5 -23 -7 -23 -4 0 8 -112 -35 -146
-56 -19 -11 -34 -18 -34 -15 0 6 -23 -11 -81 -62 -54 -48 -90 -125 -84 -182 7
-81 22 -116 64 -153 81 -71 233 -84 386 -32 44 15 90 33 103 41 12 8 22 12 22
10 0 -6 90 40 183 93 31 18 57 37 57 43 0 5 4 7 9 4 5 -3 14 1 21 9 7 8 19 15
27 15 8 0 11 5 8 10 -3 6 0 10 7 10 7 0 27 12 43 26 17 14 40 34 53 45 12 10
22 16 22 13 0 -3 20 18 44 47 25 30 42 57 40 61 -3 5 0 8 6 8 17 0 1 62 -19
77 -23 16 -79 32 -128 35 -24 1 -43 4 -43 7 0 5 -119 9 -123 4z"/>
<path d="M4236 2263 c-3 -3 -107 -17 -133 -17 -13 -1 -23 -4 -23 -8 0 -5 -6
-8 -12 -8 -24 -1 -51 -29 -54 -56 -5 -46 63 -129 171 -209 22 -16 42 -33 43
-37 2 -5 8 -6 13 -2 5 3 9 1 9 -5 0 -5 9 -13 20 -16 11 -3 26 -12 32 -18 43
-41 246 -143 363 -183 95 -31 224 -39 297 -18 89 27 158 122 158 217 0 47 -44
129 -95 176 -74 68 -207 124 -350 147 -22 3 -42 7 -46 9 -3 2 -39 7 -80 11
-40 3 -84 10 -96 15 -13 5 -25 4 -28 -2 -4 -5 -11 -6 -17 -3 -9 6 -167 12
-172 7z"/>
<path d="M2593 1145 c-12 -6 -31 -22 -41 -36 -18 -23 -72 -131 -77 -153 -1 -6
-5 -18 -8 -26 -7 -19 -30 -91 -34 -107 -2 -7 -5 -19 -6 -25 -2 -7 -8 -31 -12
-53 -12 -55 -12 -55 -14 -57 -2 -2 -4 -14 -6 -28 -2 -14 -6 -43 -10 -65 -13
-84 -15 -112 -17 -195 -1 -78 10 -170 22 -195 1 -3 3 -8 5 -12 15 -54 67 -125
116 -158 78 -51 195 -39 251 26 9 10 21 19 28 19 6 0 8 4 5 10 -3 5 -1 10 5
10 6 0 8 4 5 10 -3 5 -2 10 3 10 17 0 48 88 59 165 9 59 4 270 -6 270 -1 0 -4
20 -6 45 -5 49 -9 68 -24 118 -5 17 -8 32 -6 32 2 0 -2 18 -10 40 -8 22 -12
40 -8 40 3 0 0 7 -7 15 -7 8 -10 15 -7 15 6 0 -33 111 -60 172 -9 21 -21 38
-26 38 -4 0 -6 4 -3 8 7 11 -56 75 -75 77 -8 1 -24 -4 -36 -10z"/>
</g>
</svg>
